/* XPM */
static char *xpm[] = {
"7 5 2 10 3 3",
"00000000  c none",
"FFFFFFFF  c #FFFFFFFF",
"FFFFFFFF  00000000  FFFFFFFF  00000000  FFFFFFFF  00000000  FFFFFFFF  ",
"00000000  FFFFFFFF  00000000  FFFFFFFF  00000000  FFFFFFFF  00000000  ",
"FFFFFFFF  00000000  FFFFFFFF  00000000  FFFFFFFF  00000000  FFFFFFFF  ",
"00000000  FFFFFFFF  00000000  FFFFFFFF  00000000  FFFFFFFF  00000000  ",
"FFFFFFFF  00000000  FFFFFFFF  00000000  FFFFFFFF  00000000  FFFFFFFF  "};