/* XPM */
/***********************************************************************
 test data neko.xpm from http://www.urban.ne.jp/home/kanemori/dotnet/img2xpm/
  img2xpm XPMデータ変換
   (本文略)
  著作権・配布について
   当アプリケーションは、フリーソフトとし、
   利用・配布ともに原則として制限はありません。
   ただし、作者に断り無く営利目的の配布を行うことは禁止します。
   また、当ソフトウェアの利用により生じたいかなる障害も責任は負いかねますので、
   ご利用は自己責任のもとお願いいたします。
  更新履歴
   2003/09/06 初版リリース
***********************************************************************/
static char *neko_xpm[] = {
/* neko */
"32 32 7 2",
/* colors */
". c None",
"! c #000000",
"# c #F4A3F4",
"$ c #E8BD7C",
"% c #BF8C3F",
"& c #FFFFFF",
"' c #FF0000",
/* pixels */
". . . . . . . . . . . . . . . . . . . . . . . . . . . . . . . . ",
". . . . . . . . . . . . . . . . . . . . . . . . . . . . . . . . ",
". . . . . . . . . . . . . . . . . . . . . . . . . . . . . . . . ",
". . . . . . ! ! . . . . . . . . . . . . . . . . . ! ! . . . . . ",
". . . . . ! ! ! ! . . . . . . . . . . . . . . . ! ! ! ! . . . . ",
". . . . ! ! ! ! ! ! . . . . . . . . . . . . . ! ! ! ! ! ! . . . ",
". . . . ! ! # ! $ $ ! . . . . . . . . . . . ! $ $ ! # ! ! . . . ",
". . . . ! $ # # ! $ $ ! ! ! ! ! ! ! ! ! ! ! $ $ ! # # $ ! . . . ",
". . . . ! $ # # # ! % $ $ $ ! % ! % ! $ $ $ % ! # # # $ ! . . . ",
". . . . ! $ ! ! ! ! % $ $ $ ! % ! % ! $ $ $ % ! ! ! ! $ $ ! . . ",
". . . ! $ $ % % % % % $ $ $ ! % ! % ! $ $ $ % % % % % $ $ ! . . ",
". . . ! $ $ $ $ $ $ $ $ $ $ ! % ! % ! $ $ $ $ $ $ $ $ $ $ ! . . ",
". . . ! $ $ $ $ $ $ $ $ $ $ $ $ ! $ $ $ $ $ $ $ $ $ $ $ $ ! . . ",
". . . ! $ $ $ % ! ! ! ! % $ $ $ $ $ $ $ % ! ! ! ! % $ $ $ ! . . ",
". . . ! ! $ % ! & & & & ! % $ $ $ $ $ % ! & & & & ! % $ ! ! . . ",
". . . ! $ $ ! & & & & & & ! $ $ $ $ $ ! & & & & & & ! $ $ ! . . ",
". . . ! ! $ ! & & ! ! & & ! $ $ $ $ $ ! & & ! ! & & ! $ ! ! . . ",
"! ! . ! $ $ ! & & ! ! & & ! $ $ $ $ $ ! & & ! ! & & ! $ $ ! . ! ",
". . ! ! $ $ ! & & & & & & ! $ $ $ $ $ ! & & & & & & ! $ $ ! ! . ",
". . . ! ! $ % ! & & & & ! % $ $ $ $ $ % ! & & & & ! % $ ! ! . . ",
". . ! $ $ ! $ % ! ! ! ! % $ $ ! ! ! $ $ % ! ! ! ! % $ ! $ $ ! . ",
". . . ! $ $ $ $ $ $ $ $ $ $ $ % ! % $ $ $ $ $ $ $ $ $ $ $ ! . . ",
"! ! ! ! ! ! $ $ $ $ $ $ $ $ $ $ $ $ $ $ $ $ $ $ $ $ $ ! ! ! ! ! ",
". . . ! % ! $ $ $ $ $ $ ! $ $ $ ! $ $ $ ! $ $ $ $ $ ! % $ ! . . ",
". . . . ! ! ! $ $ $ $ $ $ ! ! ! ' ! ! ! $ $ $ $ $ $ ! ! ! . . . ",
". . . ! . . . ! ! ! ! ! ! % % ! # ! % % ! ! ! ! ! ! . ! . . . . ",
". . ! . . . . . . . . . . ! ! % ! % ! ! . . . . . . . . ! . . . ",
". . . . . . . . . . . . . . . ! . ! . . . . . . . . . . . ! . . ",
". . . . . . . . . . . . . . . . . . . . . . . . . . . . . . . . ",
". . . . . . . . . . . . . . . . . . . . . . . . . . . . . . . . ",
". . . . . . . . . . . . . . . . . . . . . . . . . . . . . . . . ",
". . . . . . . . . . . . . . . . . . . . . . . . . . . . . . . . "};