/* XPM */
static char *xpm[] = {
/* nemu_48x48_c16 */
"48 48 16  1 25 25  XPMEXT",
/* colors */
". c None",
"! c #F6F0E1",
"# c #F5EEF0",
"$ c #F6DFD8",
"% c #EBDAD8",
"& c #E0BEC7",
"' c #E0CDCC",
"( c #F0E6DF",
") c #D7AEC1",
"= c #CDA5B5",
"~ c #C5A799",
"| c #EAD9CB",
"- c #E3CAB5",
"^ c #D2BBB0",
"@ c #EDD8B5",
"` c #E2C7AA",
/* pixels */
"............!###................................",
"............$%&#................................",
"............#&&'(...............................",
"........!(#..(!)&...............................",
".......#$&)%.##)#...............#!#.............",
".......$')==$%'&..............#$$(####..........",
".......$))~=&=)%.............!$(#####((.........",
".......$)='.&)=..............$(######('.........",
".......!&=%#!''..............$(########.........",
".......#%=&))&%.............!$##((#(###.........",
".......#|))))=#...!.......$$&&########..........",
"......#$%''')=#...$(#....#%==))%#####...........",
"...#$$((($$(%)#...(%##....$=))&###%#............",
"..#$(####(%(-|....!'(#...#$)))....(#............",
"..$(######(.#....!$%##...!|~))#.#.#.............",
"..!(########....#$%%#....#^=))&|((#.............",
"..#(##%((###....$$'%#.....%==)&%!((#............",
"...$###(####....$')#(......#.'^||(!!#...........",
"....#######.....!&-%(..##$$|(.!--||!(!..........",
"....#!%((#......(|$|%.#$@-@@@|#%##(|((((........",
".....#(%|.......$%$'&||--`@@@@@.(#.$((|(........",
"......#$(#.....#$$|-|@@`@@@@@@@..#((|(##........",
"........$!.....#$--@@@@@@@|@@--$#..('%##........",
"........#(!.....|^@@@@`@@@@@|!!!!!#.|'##........",
".........((!#...$^`|@@``@|@-!.!!$!$(#@##........",
"..........|!!(!($~`|@|@-(##($##!!!!!(%(#........",
"..........$|!!!!!!(|'@-|####!!!!!!!|!|%(........",
"..........#|'||!%@^^^``'((#(!!!(!!!!!((#........",
"...........(|#!|^|(%'@@(#((|($'|!!!!!%(!........",
"............((#||###('@|##(|(!|^!!(!!|#.........",
"..............#$%####%^@||`^~^%^%!(!(...........",
"..............#$#####(|`@`^%''(=)-(!|#..........",
"..............!%(###(%%@`@^-#!(^''($|(..........",
"..............(|(####%(-@@`~!!#^=@('((#.........",
"..............$|'######(|@`~`|$|^|-'%(!#........",
"..............!''(#(#!#|@@`~~^`^`@%#%'!#........",
"..............$|(%#%%##@@@`~~`@`@@(##(!.........",
"..............$'(###(##@@-`^``@|-(###!!#........",
"..............(-%#####(|@-|```@(#####!!#........",
"..............!'^##(##|@@@$#@$(#!###|(#.........",
"...............|-&#('|@@@@(#######!(|(..........",
"..............#$|''%-`@@@|!######((!#...........",
"...............!(|-^--~@@|#####(|%..............",
"................#.%'``~@@|#!!(%(#...............",
".....................`~`@`'''%#.................",
".....................#`~@((##...................",
"......................|`(.......................",
".......................(#.......................",
"XPMEXT ext1 data1",
"XPMEXT ext2",
"data2_1",
"data2_2",
"XPMEXT ext3",
"data3",
"XPMEXT",
"data4",
"XPMENDEXT"};
